<?xml version="1.0" standalone="no"?>
<!DOCTYPE svg PUBLIC "-//W3C//DTD SVG 20010904//EN"
 "http://www.w3.org/TR/2001/REC-SVG-20010904/DTD/svg10.dtd">
<svg version="1.0" xmlns="http://www.w3.org/2000/svg"
 width="256.000000pt" height="256.000000pt" viewBox="0 0 256.000000 256.000000"
 preserveAspectRatio="xMidYMid meet">
<metadata>
Created by potrace 1.16, written by Peter Selinger 2001-2019
</metadata>
<g transform="translate(0.000000,256.000000) scale(0.100000,-0.100000)"
fill="#000000" stroke="none">
<path d="M656 2394 c-24 -23 -22 -135 3 -165 16 -20 23 -22 47 -14 28 10 29
13 32 89 2 49 -1 83 -9 92 -15 19 -54 18 -73 -2z"/>
<path d="M364 2295 c-16 -24 -15 -27 9 -64 43 -64 88 -111 107 -111 24 0 50
26 50 49 0 10 -23 48 -50 85 -57 74 -87 85 -116 41z"/>
<path d="M775 2105 c-219 -59 -396 -208 -472 -396 -10 -27 -42 -67 -85 -107
-236 -223 -284 -571 -118 -853 46 -78 129 -165 205 -216 l55 -36 0 -154 c0
-87 4 -163 10 -174 23 -41 58 -24 240 116 l175 134 490 3 490 3 76 27 c176 62
314 181 392 335 33 67 59 103 107 148 284 269 292 712 18 986 -55 55 -88 62
-112 27 -9 -12 -16 -26 -16 -30 0 -4 29 -40 66 -79 195 -213 217 -503 56 -738
l-37 -54 -7 100 c-19 293 -189 510 -478 614 -65 23 -67 24 -644 27 -555 3
-581 2 -659 -17 -44 -12 -82 -19 -84 -18 -7 8 69 94 119 136 61 51 169 104
246 120 35 7 228 11 567 11 502 0 516 1 535 20 24 24 25 43 4 64 -14 14 -77
16 -552 15 -418 0 -548 -3 -587 -14z m970 -430 c170 -36 329 -160 404 -317 21
-46 44 -107 50 -136 25 -122 6 -262 -51 -381 -44 -90 -169 -215 -259 -259
-124 -60 -146 -62 -666 -62 l-473 0 -145 -110 -144 -110 -3 131 -3 132 -65 39
c-121 71 -225 205 -264 336 -66 225 15 473 202 622 61 49 180 105 248 118 27
6 285 10 574 11 425 0 538 -2 595 -14z"/>
<path d="M475 1365 c-52 -18 -111 -82 -125 -135 -22 -81 -2 -124 123 -268 128
-147 130 -148 179 -162 66 -19 102 5 229 151 147 171 163 217 113 317 -55 110
-184 142 -287 70 -26 -19 -29 -19 -47 -3 -23 21 -86 44 -120 44 -14 0 -43 -6
-65 -14z m125 -115 c11 -11 22 -32 26 -47 10 -48 13 -53 39 -65 21 -9 28 -8
45 7 11 10 20 28 20 41 0 12 12 36 26 53 64 76 188 5 153 -88 -15 -39 -208
-251 -229 -251 -11 0 -60 48 -124 122 -95 110 -106 127 -106 161 0 53 35 87
90 87 26 0 47 -7 60 -20z"/>
<path d="M1192 1364 c-12 -8 -22 -26 -22 -39 0 -51 22 -55 302 -55 245 0 259
1 278 20 11 11 20 27 20 35 0 8 -9 24 -20 35 -19 19 -33 20 -278 20 -217 0
-261 -2 -280 -16z"/>
<path d="M1187 1122 c-23 -26 -21 -58 5 -76 19 -14 74 -16 398 -16 324 0 379
2 398 16 27 18 29 55 4 77 -17 15 -59 17 -404 17 -360 0 -386 -1 -401 -18z"/>
<path d="M1186 884 c-24 -23 -20 -61 8 -79 21 -14 61 -16 286 -13 246 3 263 4
276 22 19 27 18 42 -6 66 -19 19 -33 20 -284 20 -227 0 -267 -2 -280 -16z"/>
<path d="M177 2085 c-22 -21 -22 -48 1 -67 22 -20 109 -58 132 -58 25 0 42 25
38 57 -2 22 -13 32 -52 51 -69 33 -99 37 -119 17z"/>
</g>
</svg>
